Coordinates
version=1
nRows=8
nColumns=40
inDegrees=yes

Units are S.I. units (second, meters, Newtons, ...)
Angles are in degrees.

endheader
time	pelvis_tilt	pelvis_list	pelvis_rotation	pelvis_tx	pelvis_ty	pelvis_tz	hip_flexion_r	hip_adduction_r	hip_rotation_r	knee_angle_r	knee_angle_r_beta	ankle_angle_r	subtalar_angle_r	mtp_angle_r	hip_flexion_l	hip_adduction_l	hip_rotation_l	knee_angle_l	knee_angle_l_beta	ankle_angle_l	subtalar_angle_l	mtp_angle_l	lumbar_extension	lumbar_bending	lumbar_rotation	arm_flex_r	arm_add_r	arm_rot_r	elbow_flex_r	pro_sup_r	wrist_flex_r	wrist_dev_r	arm_flex_l	arm_add_l	arm_rot_l	elbow_flex_l	pro_sup_l	wrist_flex_l	wrist_dev_l
     13.35000000	     -4.03479938	     -4.48881114	     -0.39409399	      0.99187939	      0.91885243	      0.52692465	     17.86434070	      3.79884483	     -8.05275989	     26.97096388	     26.97096388	     14.79447619	     -5.65448086	     -1.11580669	     17.09459986	    -13.50127046	     -0.53529431	     52.90072076	     52.90072076	      9.28868999	    -14.97634635	     -3.85804264	     -9.46150975	      4.99395424	     -0.56879317	      3.02298886	    -14.21983239	    -10.95219707	     25.31799569	     46.31069167	      0.00000000	      0.00000000	     15.70314247	    -12.60248932	     -1.14525669	     34.56016020	     45.66308642	      0.00000000	      0.00000000
     13.37285714	     -3.56636470	     -4.77485665	      0.36152408	      0.98996840	      0.91762321	      0.53016016	     17.46750687	      4.33589997	     -8.19541492	     27.49599165	     27.49599165	     15.19681833	     -6.89284636	     -1.15603626	     19.84628232	    -13.89222378	      0.86963492	     56.99280580	     56.99280580	      8.75752855	    -16.17075266	     -2.30815484	    -10.08072230	      5.09940078	     -0.36772074	      6.33664853	    -14.20431287	    -10.84709505	     26.18177985	     46.30616434	      0.00000000	      0.00000000	     13.45756695	    -11.70846252	     -0.37132546	     32.20628768	     45.54634888	      0.00000000	      0.00000000
     13.39571429	     -3.29865123	     -4.92956613	      1.11226749	      0.98786327	      0.91595769	      0.53321827	     17.43268737	      4.68882691	     -8.38039126	     28.29173602	     28.29173602	     15.72469618	     -8.00109675	     -1.17669370	     22.94652813	    -13.88946765	      2.43107862	     60.99410398	     60.99410398	      9.75007410	    -16.79269107	      3.36105160	    -10.41953793	      5.07724153	      0.16051587	      9.71242259	    -14.36556280	    -10.53691496	     26.67062986	     46.31228364	      0.00000000	      0.00000000	     11.27352537	    -10.79214004	      1.44440722	     29.77214951	     45.32437958	      0.00000000	      0.00000000
     13.41857143	     -2.96166242	     -5.07687830	      1.87774186	      0.98588444	      0.91446330	      0.53618317	     17.28371996	      5.07739998	     -8.45821409	     29.01469961	     29.01469961	     16.22607207	     -9.22837189	     -1.19735244	     25.62766972	    -13.88042591	      3.74089623	     63.90333241	     63.90333241	      9.34464191	    -17.86277489	      5.09962931	    -10.85052716	      5.05644024	      0.23623921	     13.15816790	    -14.40893681	    -10.56181747	     28.38398793	     46.27433398	      0.00000000	      0.00000000	      8.49107145	    -10.06789409	      2.21378969	     28.07538206	     45.18668754	      0.00000000	      0.00000000
     13.44142857	     -2.67890556	     -5.16039322	      2.61956314	      0.98393221	      0.91322232	      0.53868120	     17.10035689	      5.35150099	     -8.66021021	     29.57987275	     29.57987275	     16.72962528	    -10.19275902	     -0.97933275	     28.29616391	    -13.61265742	      4.99204407	     66.31337590	     66.31337590	     10.75992649	    -18.28217382	     11.22331420	    -11.20221326	      4.98729086	      0.72442049	     16.50490994	    -14.76781217	    -10.26415391	     29.71586516	     46.23360505	      0.00000000	      0.00000000	      5.88363242	     -9.40060804	      4.59657513	     26.62445810	     44.84577759	      0.00000000	      0.00000000
     13.46428571	     -2.35596893	     -5.22897198	      3.35760771	      0.98214928	      0.91238603	      0.54093441	     16.77238053	      5.66240841	     -8.71956579	     29.94298410	     29.94298410	     17.07176054	    -11.31579581	     -0.85644540	     30.45169548	    -13.46775431	      5.82749871	     67.43138967	     67.43138967	     10.74546934	    -18.84840767	     12.79209286	    -11.59787125	      4.90186877	      0.92562351	     19.90289366	    -14.95289794	    -10.29731713	     31.62768719	     46.18446215	      0.00000000	      0.00000000	      3.14415762	     -8.72823839	      5.46339694	     25.35588698	     44.67980670	      0.00000000	      0.00000000
     13.48714286	     -2.16274487	     -5.23848230	      4.10053414	      0.98038861	      0.91187173	      0.54260559	     16.47618860	      5.84189904	     -8.90187360	     30.11151704	     30.11151704	     17.38293529	    -12.14658453	     -0.59436951	     32.49634528	    -13.10207721	      6.56427173	     67.74423101	     67.74423101	     11.86085906	    -19.08315859	     16.87383491	    -11.82611842	      4.78375930	      1.39353073	     22.96688111	    -15.44129487	    -10.08391684	     33.88028672	     46.10049608	      0.00000000	      0.00000000	      0.36498519	     -8.26570573	      7.52686548	     24.97224230	     44.32108204	      0.00000000	      0.00000000
     13.51000000	     -2.02468824	     -5.14708747	      4.80694468	      0.97875769	      0.91190492	      0.54376579	     16.07831928	      5.84463011	     -9.20055315	     30.02506498	     30.02506498	     17.60274923	    -12.55575392	     -0.55745218	     34.01434083	    -12.75514618	      6.83059497	     66.75512916	     66.75512916	     11.77882954	    -19.29243728	     17.08526253	    -11.95230129	      4.53943845	      2.52093057	     25.90720789	    -16.54420273	    -10.24765864	     35.18807085	     46.08186852	      0.00000000	      0.00000000	     -1.77811797	     -7.51728185	      7.75351726	     24.26138223	     44.24758060	      0.00000000	      0.00000000
